<!-- Created with Inkscape (http://www.inkscape.org/) -->
<svg xmlns:rdf="http://www.w3.org/1999/02/22-rdf-syntax-ns#" xmlns="http://www.w3.org/2000/svg" height="42" width="127.69" version="1.1" xmlns:cc="http://creativecommons.org/ns#" xmlns:dc="http://purl.org/dc/elements/1.1/">
 <metadata>
  <rdf:RDF>
   <cc:Work rdf:about="">
    <dc:format>image/svg+xml</dc:format>
    <dc:type rdf:resource="http://purl.org/dc/dcmitype/StillImage"/>
    <dc:title/>
   </cc:Work>
  </rdf:RDF>
 </metadata>
 <path fill="#e7e7e7" d="M0.000011242,39.606c4.0119-2.546,4.5727-6.342,4.5296-10.613-0.0862-15.789-0.0431,5.474-0.0431-10.315,0-9.6635,6.3414-16.307,16.048-16.609,4.6591-0.12942,9.3181-0.043138,13.977-0.043138h8.2758c8.0241,0,13.718,3.7531,16.35,10.785,0.69022,1.8119,0.86279,3.71,0.86279,5.6512v4.3193c0,10.354-6.3848,16.868-16.738,17.126-2.6746,0.04314-5.3493,0-8.0241,0h-12.633c-3.7963,0-7.463-0.38826-10.699-2.6315-1.0354-0.69022-1.8119-0.25884-2.7178,0.25884-2.8041,1.5099-5.8236,2.2433-9.1887,2.0707z"/>
 <path fill="#45d55d" d="m127.69,39.677c-4.0119-2.5452-4.5726-6.3414-4.5296-10.612,0.0863-15.789,0.0431,5.4732,0.0431-10.316,0-9.6635-6.3414-16.307-16.048-16.609-4.6591-0.12942-9.3182-0.043138-13.977-0.043138h-8.2758c-8.0241,0-13.718,3.7531-16.35,10.785-0.69022,1.8119-0.86279,3.71-0.86279,5.6512v4.3193c0,10.354,6.3848,16.868,16.738,17.126,2.6746,0.04314,5.3493,0,8.0241,0h12.633c3.7963,0,7.463-0.38826,10.699-2.6315,1.0354-0.69022,1.8118-0.25884,2.7178,0.25884,2.8041,1.5099,5.8236,2.2433,9.1887,2.0707z"/>
</svg>
