<?xml version="1.0" encoding="UTF-8" standalone="no"?>
<!-- Generator: Adobe Illustrator 18.0.0, SVG Export Plug-In . SVG Version: 6.00 Build 0)  -->

<svg
   xmlns:dc="http://purl.org/dc/elements/1.1/"
   xmlns:cc="http://creativecommons.org/ns#"
   xmlns:rdf="http://www.w3.org/1999/02/22-rdf-syntax-ns#"
   xmlns:svg="http://www.w3.org/2000/svg"
   xmlns="http://www.w3.org/2000/svg"
   xmlns:sodipodi="http://sodipodi.sourceforge.net/DTD/sodipodi-0.dtd"
   xmlns:inkscape="http://www.inkscape.org/namespaces/inkscape"
   version="1.1"
   id="Слой_1"
   x="0px"
   y="0px"
   viewBox="-353786.78 0 0 841.9"
   enable-background="new 0 0 595.3 841.9"
   xml:space="preserve"
   inkscape:version="0.91 r"
   width="65.021805"
   height="32.45602"
   sodipodi:docname="menu_exchange_icon.svg"><metadata
     id="metadata25"><rdf:RDF><cc:Work
         rdf:about=""><dc:format>image/svg+xml</dc:format><dc:type
           rdf:resource="http://purl.org/dc/dcmitype/StillImage" /><dc:title></dc:title></cc:Work></rdf:RDF></metadata><defs
     id="defs23" /><sodipodi:namedview
     pagecolor="#ffffff"
     bordercolor="#666666"
     borderopacity="1"
     objecttolerance="10"
     gridtolerance="10"
     guidetolerance="10"
     inkscape:pageopacity="0"
     inkscape:pageshadow="2"
     inkscape:window-width="1920"
     inkscape:window-height="1033"
     id="namedview21"
     showgrid="false"
     inkscape:zoom="1.8101934"
     inkscape:cx="84.968415"
     inkscape:cy="14.140094"
     inkscape:window-x="0"
     inkscape:window-y="25"
     inkscape:window-maximized="1"
     inkscape:current-layer="Слой_1"
     fit-margin-top="0"
     fit-margin-left="0"
     fit-margin-right="0"
     fit-margin-bottom="0" /><g
     id="menu_exchange_activated"
     transform="matrix(0.99618912,0,0,0.99618912,7.3542269,-103.48687)"
     style="fill:#cecece;fill-opacity:1;stroke:none"><g
       transform="matrix(0.10254562,0,0,0.10254562,18.110093,101.33193)"
       id="g5-1-9"
       style="fill:#cecece;fill-opacity:1;stroke:none"><g
         id="g7-5-7"
         style="fill:#cecece;fill-opacity:1;stroke:none"><g
           id="g9-8-4"
           style="fill:#cecece;fill-opacity:1;stroke:none"><path
             id="path4038"
             d="m 314.8125,191.875 -2.65625,2.65625 -6.71875,6.71875 -2.65625,2.65625 2.65625,2.65625 49.90625,49.875 -59.53125,0 -121.40625,0 -3.75,0 0,3.75 0,9.5 0,3.78125 3.75,0 121.40625,0 59.53125,0 -49.90625,49.96875 -2.65625,2.65625 2.65625,2.65625 6.71875,6.71875 2.65625,2.65625 2.65625,-2.65625 L 385.25,267.65625 387.90625,265 385.25,262.34375 317.46875,194.53125 314.8125,191.875 Z"
             style="color:#000000;font-style:normal;font-variant:normal;font-weight:normal;font-stretch:normal;font-size:medium;line-height:normal;font-family:Sans;-inkscape-font-specification:Sans;text-indent:0;text-align:start;text-decoration:none;text-decoration-line:none;letter-spacing:normal;word-spacing:normal;text-transform:none;direction:ltr;block-progression:tb;writing-mode:lr-tb;baseline-shift:baseline;text-anchor:start;display:inline;overflow:visible;visibility:visible;fill:#cecece;fill-opacity:1;fill-rule:nonzero;stroke:none;stroke-width:7.50885344;marker:none;enable-background:accumulate"
             inkscape:connector-curvature="0" /></g></g></g><g
       transform="matrix(0.10254562,0,0,0.10254562,18.110093,101.33193)"
       id="g13-8-9"
       style="fill:#cecece;fill-opacity:1;stroke:none"><g
         id="g15-3-8"
         style="fill:#cecece;fill-opacity:1;stroke:none"><g
           id="g17-3-1"
           style="fill:#cecece;fill-opacity:1;stroke:none"><path
             id="path4027"
             d="M 242.1875,24.875 239.53125,27.53125 171.75,95.34375 169.09375,98 l 2.65625,2.65625 67.78125,67.8125 2.65625,2.65625 2.65625,-2.65625 6.71875,-6.71875 2.65625,-2.65625 -2.65625,-2.65625 -49.90625,-49.96875 59.4375,0 121.5,0 3.75,0 0,-3.78125 0,-9.5 0,-3.75 -3.75,0 -121.5,0 -59.4375,0 49.90625,-49.875 2.65625,-2.65625 L 251.5625,34.25 244.84375,27.53125 242.1875,24.875 Z"
             style="color:#000000;font-style:normal;font-variant:normal;font-weight:normal;font-stretch:normal;font-size:medium;line-height:normal;font-family:Sans;-inkscape-font-specification:Sans;text-indent:0;text-align:start;text-decoration:none;text-decoration-line:none;letter-spacing:normal;word-spacing:normal;text-transform:none;direction:ltr;block-progression:tb;writing-mode:lr-tb;baseline-shift:baseline;text-anchor:start;display:inline;overflow:visible;visibility:visible;fill:#cecece;fill-opacity:1;fill-rule:nonzero;stroke:none;stroke-width:7.50885344;marker:none;enable-background:accumulate"
             inkscape:connector-curvature="0" /></g></g></g></g><g
     id="menu_exchange_normal"
     transform="matrix(0.99618912,0,0,0.99618912,-35.314821,-103.03085)"
     style="fill:#ffffff;fill-opacity:1;stroke:none"><g
       transform="matrix(0.10254562,0,0,0.10254562,18.110093,101.33193)"
       id="g5-1-9-1"
       style="fill:#ffffff;fill-opacity:1;stroke:none"><g
         id="g7-5-7-8"
         style="fill:#ffffff;fill-opacity:1;stroke:none"><g
           id="g9-8-4-5"
           style="fill:#ffffff;fill-opacity:1;stroke:none"><path
             id="path4038-5"
             d="m 314.8125,191.875 -2.65625,2.65625 -6.71875,6.71875 -2.65625,2.65625 2.65625,2.65625 49.90625,49.875 -59.53125,0 -121.40625,0 -3.75,0 0,3.75 0,9.5 0,3.78125 3.75,0 121.40625,0 59.53125,0 -49.90625,49.96875 -2.65625,2.65625 2.65625,2.65625 6.71875,6.71875 2.65625,2.65625 2.65625,-2.65625 L 385.25,267.65625 387.90625,265 385.25,262.34375 317.46875,194.53125 314.8125,191.875 Z"
             style="color:#000000;font-style:normal;font-variant:normal;font-weight:normal;font-stretch:normal;font-size:medium;line-height:normal;font-family:Sans;-inkscape-font-specification:Sans;text-indent:0;text-align:start;text-decoration:none;text-decoration-line:none;letter-spacing:normal;word-spacing:normal;text-transform:none;direction:ltr;block-progression:tb;writing-mode:lr-tb;baseline-shift:baseline;text-anchor:start;display:inline;overflow:visible;visibility:visible;fill:#ffffff;fill-opacity:1;fill-rule:nonzero;stroke:none;stroke-width:7.50885344;marker:none;enable-background:accumulate"
             inkscape:connector-curvature="0" /></g></g></g><g
       transform="matrix(0.10254562,0,0,0.10254562,18.110093,101.33193)"
       id="g13-8-9-8"
       style="fill:#ffffff;fill-opacity:1;stroke:none"><g
         id="g15-3-8-0"
         style="fill:#ffffff;fill-opacity:1;stroke:none"><g
           id="g17-3-1-5"
           style="fill:#ffffff;fill-opacity:1;stroke:none"><path
             id="path4027-0"
             d="M 242.1875,24.875 239.53125,27.53125 171.75,95.34375 169.09375,98 l 2.65625,2.65625 67.78125,67.8125 2.65625,2.65625 2.65625,-2.65625 6.71875,-6.71875 2.65625,-2.65625 -2.65625,-2.65625 -49.90625,-49.96875 59.4375,0 121.5,0 3.75,0 0,-3.78125 0,-9.5 0,-3.75 -3.75,0 -121.5,0 -59.4375,0 49.90625,-49.875 2.65625,-2.65625 L 251.5625,34.25 244.84375,27.53125 242.1875,24.875 Z"
             style="color:#000000;font-style:normal;font-variant:normal;font-weight:normal;font-stretch:normal;font-size:medium;line-height:normal;font-family:Sans;-inkscape-font-specification:Sans;text-indent:0;text-align:start;text-decoration:none;text-decoration-line:none;letter-spacing:normal;word-spacing:normal;text-transform:none;direction:ltr;block-progression:tb;writing-mode:lr-tb;baseline-shift:baseline;text-anchor:start;display:inline;overflow:visible;visibility:visible;fill:#ffffff;fill-opacity:1;fill-rule:nonzero;stroke:none;stroke-width:7.50885344;marker:none;enable-background:accumulate"
             inkscape:connector-curvature="0" /></g></g></g></g></svg>