<!-- Created with Inkscape (http://www.inkscape.org/) -->
<svg xmlns:rdf="http://www.w3.org/1999/02/22-rdf-syntax-ns#" xmlns="http://www.w3.org/2000/svg" height="32px" width="32px" version="1.1" xmlns:cc="http://creativecommons.org/ns#" xmlns:dc="http://purl.org/dc/elements/1.1/">
 <metadata>
  <rdf:RDF>
   <cc:Work rdf:about="">
    <dc:format>image/svg+xml</dc:format>
    <dc:type rdf:resource="http://purl.org/dc/dcmitype/StillImage"/>
    <dc:title/>
   </cc:Work>
  </rdf:RDF>
 </metadata>
 <path d="m16,0.5q-3.1969,0-6.0224,1.2271t-4.9245,3.326q-2.0989,2.099-3.326,4.9245-1.2271,2.8254-1.2271,6.0224,0,3.2292,1.2271,6.0547t3.3261,4.9245q2.099,2.0989,4.9245,3.3099,2.8253,1.21,6.0223,1.21,3.1969,0,6.0224-1.2109t4.9245-3.3099,3.326-4.9245q1.228-2.825,1.228-6.054,0-3.197-1.227-6.0224-1.227-2.8255-3.326-4.9245-2.099-2.0989-4.925-3.326-2.825-1.2271-6.022-1.2271zm0,1.2917q2.9385,0,5.5219,1.1141,2.5833,1.1141,4.5208,3.0516t3.0516,4.5208,1.1141,5.5219q0,2.9708-1.1141,5.5542-1.1141,2.5833-3.0516,4.5208-1.9375,1.9052-4.5208,3.0192-2.5833,1.1141-5.5219,1.1141-2.9385,0-5.5219-1.1141-2.5832-1.114-4.5207-3.019-1.9375-1.937-3.0516-4.521-1.114-2.583-1.114-5.554,0-2.9386,1.1141-5.5219t3.0516-4.5208,4.5208-3.0516,5.5219-1.1141zm0,6.4583q-0.93646,0-1.7599,0.35518-0.82344,0.35526-1.437,1.0011-0.61354,0.61357-0.96875,1.437-0.35521,0.82344-0.35521,1.7276,0,0.29062,0.19375,0.46826,0.19375,0.17763,0.45208,0.17763,0.25834,0,0.45209-0.17763t0.19375-0.46826q0-0.64581,0.25833-1.2432,0.25834-0.59745,0.67812-1.0172,0.45209-0.45214,1.0333-0.71044,0.58125-0.25831,1.2594-0.25831,0.67812,0,1.2594,0.25831,0.58125,0.25831,1.0333,0.71044,0.4198,0.41974,0.67812,1.0172,0.25833,0.59737,0.25833,1.2432,0,0.67812-0.25833,1.2594-0.25833,0.58125-0.67812,1.0334-0.45208,0.41974-1.0333,0.67812-0.58,0.259-1.258,0.259-0.25834,0-0.45209,0.19375t-0.19375,0.45206v3.875q0,0.29062,0.19375,0.46826,0.19375,0.17763,0.45209,0.17763,0.25833,0,0.45208-0.17763t0.19375-0.46826v-3.2293q0.807-0.12969,1.518-0.51669,0.71042-0.3875,1.2271-1.0011,0.54896-0.58125,0.83958-1.3562,0.29062-0.775,0.29062-1.6469,0-0.90412-0.35521-1.7276-0.357-0.823-0.97-1.4367-0.614-0.6459-1.437-1.0011-0.824-0.3552-1.76-0.3552zm0,14.208q-0.25834,0-0.50053,0.09687-0.24219,0.09688-0.40364,0.29062-0.19375,0.16151-0.29062,0.4037-0.09688,0.24219-0.09688,0.5005,0,0.29062,0.09688,0.53281t0.29062,0.40362q0.16146,0.16151,0.40364,0.25838,0.24219,0.09688,0.50053,0.09688,0.25833,0,0.50052-0.09688,0.24219-0.09687,0.40364-0.25838,0.19375-0.16143,0.29062-0.40362,0.09688-0.24219,0.09688-0.53281,0-0.25831-0.09688-0.5005t-0.29062-0.4037q-0.16146-0.19375-0.40364-0.29062-0.24219-0.09687-0.50052-0.09687z" path-name="uniE621" fill-opacity="0.97254902" unicode="" fill="#cecece"/>
</svg>
