<!-- Created with Inkscape (http://www.inkscape.org/) -->
<svg xmlns:rdf="http://www.w3.org/1999/02/22-rdf-syntax-ns#" xmlns="http://www.w3.org/2000/svg" height="32px" width="32px" version="1.1" xmlns:cc="http://creativecommons.org/ns#" xmlns:dc="http://purl.org/dc/elements/1.1/">
 <metadata>
  <rdf:RDF>
   <cc:Work rdf:about="">
    <dc:format>image/svg+xml</dc:format>
    <dc:type rdf:resource="http://purl.org/dc/dcmitype/StillImage"/>
    <dc:title/>
   </cc:Work>
  </rdf:RDF>
 </metadata>
 <path stroke-linejoin="round" d="m30.611,12.384c-2.5092,2.3512-5.0185,4.7024-7.5277,7.0535,0.65201,3.5959,1.304,7.1918,1.956,10.788-3.0032-1.877-6.0064-3.754-9.0096-5.631-3.0229,1.877-6.0459,3.754-9.0688,5.631,0.6921-3.596,1.3837-7.192,2.0752-10.788-2.5488-2.351-5.0975-4.702-7.6463-7.054,3.4379-0.395,6.8757-0.79,10.314-1.185,1.4423-3.1415,2.8846-6.283,4.327-9.4245,1.4621,3.1612,2.9242,6.3225,4.3862,9.4837,3.3983,0.3754,6.7967,0.7508,10.195,1.1262z" stroke-opacity="0.97254902" stroke="#cecece" stroke-linecap="round" stroke-miterlimit="10" stroke-width="1.77820265000000011" fill="none"/>
</svg>
