<?xml version="1.0" encoding="UTF-8" standalone="no"?>
<!-- Created with Inkscape (http://www.inkscape.org/) -->

<svg
   xmlns:dc="http://purl.org/dc/elements/1.1/"
   xmlns:cc="http://creativecommons.org/ns#"
   xmlns:rdf="http://www.w3.org/1999/02/22-rdf-syntax-ns#"
   xmlns:svg="http://www.w3.org/2000/svg"
   xmlns="http://www.w3.org/2000/svg"
   xmlns:sodipodi="http://sodipodi.sourceforge.net/DTD/sodipodi-0.dtd"
   xmlns:inkscape="http://www.inkscape.org/namespaces/inkscape"
   width="210mm"
   height="297mm"
   id="svg6650"
   version="1.1"
   inkscape:version="0.48.4 r9939"
   sodipodi:docname="sketches.svg">
  <defs
     id="defs3" />
  <sodipodi:namedview
     inkscape:document-units="mm"
     id="base"
     pagecolor="#ffffff"
     bordercolor="#666666"
     borderopacity="1.0"
     inkscape:pageopacity="0.0"
     inkscape:pageshadow="2"
     inkscape:zoom="0.54003905"
     inkscape:cx="523.61805"
     inkscape:cy="900.30763"
     inkscape:current-layer="g3099"
     showgrid="false"
     inkscape:window-width="1280"
     inkscape:window-height="977"
     inkscape:window-x="0"
     inkscape:window-y="25"
     inkscape:window-maximized="1" />
  <metadata
     id="metadata4">
    <rdf:RDF>
      <cc:Work
         rdf:about="">
        <dc:format>image/svg+xml</dc:format>
        <dc:type
           rdf:resource="http://purl.org/dc/dcmitype/StillImage" />
        <dc:title />
      </cc:Work>
    </rdf:RDF>
  </metadata>
  <g
     inkscape:label="Layer 1"
     inkscape:groupmode="layer"
     id="layer1">
    <rect
       style="fill:#000000;fill-opacity:1;fill-rule:evenodd;stroke:#000000;stroke-width:5.64149904px;stroke-linecap:butt;stroke-linejoin:miter;stroke-opacity:1"
       id="rect5867"
       width="331.38229"
       height="369.85355"
       x="4.8327904"
       y="4.8113618"
       rx="0"
       ry="57.490185" />
    <path
       path-name="uniE621"
       unicode=""
       d="m 30.348829,20.472347 q -3.196883,0 -6.022402,1.227058 -2.825518,1.227135 -4.924481,3.326067 -2.098964,2.098933 -3.326052,4.924505 -1.227081,2.825495 -1.227081,6.02237 0,3.229193 1.227081,6.054688 1.227088,2.825495 3.326052,4.924505 2.098963,2.098932 4.924481,3.30987 2.825519,1.210937 6.022402,1.210937 3.196875,0 6.022393,-1.210937 2.825518,-1.210938 4.924474,-3.30987 2.098963,-2.09901 3.326036,-4.924505 1.227081,-2.825495 1.227081,-6.054688 0,-3.196875 -1.227081,-6.02237 -1.22708,-2.825572 -3.326036,-4.924505 -2.098956,-2.098932 -4.924482,-3.326067 -2.825518,-1.227058 -6.022393,-1.227058 v 0 z m 0,1.291693 q 2.938536,0 5.521874,1.114062 2.583331,1.114063 4.520831,3.051563 1.9375,1.9375 3.051563,4.520807 1.114054,2.583308 1.114054,5.521875 0,2.970808 -1.114062,5.554193 -1.114063,2.583307 -3.051555,4.520807 -1.937508,1.905183 -4.520838,3.019245 -2.583331,1.114063 -5.521875,1.114063 -2.938544,0 -5.521875,-1.114063 -2.583331,-1.114062 -4.520831,-3.019245 -1.9375,-1.9375 -3.05157,-4.520807 -1.11407,-2.583385 -1.11407,-5.554193 0,-2.938567 1.11407,-5.521875 1.11407,-2.583307 3.05157,-4.520807 1.9375,-1.9375 4.520831,-3.051563 2.583331,-1.114062 5.521875,-1.114062 v 0 z m 0,6.458307 q -0.936464,0 -1.759901,0.355183 -0.823438,0.35526 -1.436982,1.001067 -0.613537,0.613568 -0.96875,1.437005 -0.355206,0.823438 -0.355206,1.727553 0,0.290625 0.19375,0.468255 0.19375,0.17763 0.452081,0.17763 0.258338,0 0.452088,-0.17763 0.19375,-0.17763 0.19375,-0.468255 0,-0.645808 0.258331,-1.243178 0.258338,-0.597447 0.678125,-1.017187 0.452088,-0.452135 1.033338,-0.710443 0.581251,-0.258307 1.259376,-0.258307 0.678124,0 1.259375,0.258307 0.581249,0.258308 1.03333,0.710443 0.419795,0.41974 0.678125,1.017187 0.258331,0.59737 0.258331,1.243178 0,0.678125 -0.258331,1.259375 -0.25833,0.58125 -0.678125,1.033385 -0.452081,0.41974 -1.03333,0.678125 -0.581251,0.258307 -1.259375,0.258307 -0.258339,0 -0.452089,0.19375 -0.19375,0.19375 -0.19375,0.452058 v 3.875 q 0,0.290625 0.19375,0.468255 0.19375,0.17763 0.452089,0.17763 0.25833,0 0.45208,-0.17763 0.19375,-0.17763 0.19375,-0.468255 V 37.26404 q 0.807295,-0.129193 1.517706,-0.516693 0.710419,-0.3875 1.227088,-1.001067 0.548956,-0.58125 0.839581,-1.35625 0.290625,-0.775 0.290625,-1.646875 0,-0.904115 -0.355206,-1.727553 -0.355213,-0.823437 -0.96875,-1.437005 -0.613544,-0.645807 -1.436981,-1.001067 -0.823438,-0.355183 -1.759894,-0.355183 v 0 z m 0,14.208308 q -0.258339,0 -0.500526,0.09687 -0.242188,0.09688 -0.403644,0.290625 -0.19375,0.16151 -0.290625,0.403697 -0.09688,0.242188 -0.09688,0.500495 0,0.290625 0.09688,0.532813 0.09688,0.242187 0.290625,0.40362 0.161456,0.16151 0.403644,0.258385 0.242187,0.09688 0.500526,0.09688 0.25833,0 0.500518,-0.09688 0.242187,-0.09687 0.403643,-0.258385 0.19375,-0.161433 0.290625,-0.40362 0.09688,-0.242188 0.09688,-0.532813 0,-0.258307 -0.09688,-0.500495 -0.09688,-0.242187 -0.290625,-0.403697 -0.161456,-0.19375 -0.403643,-0.290625 -0.242188,-0.09687 -0.500518,-0.09687 v 0 z"
       id="menu_support"
       inkscape:connector-curvature="0"
       style="fill:#ffffff;fill-opacity:1;stroke:none" />
    <g
       transform="matrix(0.39827951,0,0,0.39827951,325.96798,-41.831139)"
       id="g3099">
      <path
         style="fill:#45d55d"
         inkscape:connector-curvature="0"
         d="m 45.873971,233.28004 c 10.07328,-6.39057 11.48137,-15.92228 11.37305,-26.64544 -0.21662,-39.64322 -0.10831,13.74206 -0.10831,-25.90116 0,-24.26252 15.92228,-40.943 40.29311,-41.7012 11.697999,-0.32494 23.395999,-0.10831 35.093999,-0.10831 70.83788,0 -50.059369,0 20.77851,0 20.14656,0 34.44411,9.42338 41.05131,27.0787 1.73304,4.54922 2.1663,9.31507 2.1663,14.18924 0,34.66074 0,-23.81534 0,10.8454 0,25.99555 -16.03059,42.35109 -42.02614,43.00097 -6.71552,0.10832 -13.43104,0 -20.14656,0 -74.520589,0 42.80228,0 -31.71831,0 -9.531699,0 -18.738459,-0.97483 -26.862069,-6.6072 -2.59956,-1.73304 -4.54923,-0.64989 -6.82384,0.64989 -7.04046,3.79102 -14.6225,5.63237 -23.07105,5.19911 z"
         id="msg_in"
         sodipodi:nodetypes="ccscsscsscssccc" />
      <path
         style="fill:#e7e7e7;fill-opacity:1"
         inkscape:connector-curvature="0"
         d="m 366.4722,233.46408 c -10.07328,-6.39057 -11.48137,-15.92228 -11.37305,-26.64544 0.21661,-39.64322 0.10831,13.74206 0.10831,-25.90116 0,-24.26252 -15.92228,-40.943 -40.29311,-41.7012 -11.698,-0.32494 -23.396,-0.10831 -35.094,-0.10831 -70.83788,0 50.05937,0 -20.77851,0 -20.14656,0 -34.44411,9.42338 -41.05131,27.0787 -1.73304,4.54922 -2.16631,9.31507 -2.16631,14.18924 0,34.66074 0,-23.81534 0,10.8454 0,25.99555 16.0306,42.35109 42.02615,43.00097 6.71552,0.10832 13.43104,0 20.14656,0 74.52059,0 -42.80228,0 31.71831,0 9.5317,0 18.73845,-0.97483 26.86207,-6.6072 2.59955,-1.73304 4.54923,-0.64989 6.82384,0.64989 7.04046,3.79102 14.6225,5.63237 23.07105,5.19911 z"
         id="msg_out"
         sodipodi:nodetypes="ccscsscsscssccc" />
    </g>
  </g>
</svg>
